PathFileType	4	(X/Y/Z)	/Users/itak/Documents/Research/Walk-IL/dataset/trc/00208_00009.trc
DataRate	CameraRate	NumFrames	NumMarkers	Units	OrigDataRate	OrigDataStartFrame	OrigNumFrames
100.000000	100.000000	4	53	mm	100.000000	196	787
Frame#	Time	RPSI			LPSI			L3			STRN			T10			C7			CLAV			RBAK			LBAK			LSHO			LUPA			LAEL			LAOL			LWTS			LWPS			LFRA			LIFD			LHPS			LHTS			RSHO			RUPA			RAEL			RAOL			RWTS			RWPS			RFRA			RIFD			RHTS			RHPS			RBHD			LFHD			RFHD			LBHD			LHIP			RHIP			RASI			LASI			LKNE			LTHI			LANK			LTIP			LTOE			LMT1			LMT5			LHEE			RKNE			RTHI			RANK			RTIP			RTOE			RMT1			RMT5			RHEE			
		X1	Y1	Z1	X2	Y2	Z2	X3	Y3	Z3	X4	Y4	Z4	X5	Y5	Z5	X6	Y6	Z6	X7	Y7	Z7	X8	Y8	Z8	X9	Y9	Z9	X10	Y10	Z10	X11	Y11	Z11	X12	Y12	Z12	X13	Y13	Z13	X14	Y14	Z14	X15	Y15	Z15	X16	Y16	Z16	X17	Y17	Z17	X18	Y18	Z18	X19	Y19	Z19	X20	Y20	Z20	X21	Y21	Z21	X22	Y22	Z22	X23	Y23	Z23	X24	Y24	Z24	X25	Y25	Z25	X26	Y26	Z26	X27	Y27	Z27	X28	Y28	Z28	X29	Y29	Z29	X30	Y30	Z30	X31	Y31	Z31	X32	Y32	Z32	X33	Y33	Z33	X34	Y34	Z34	X35	Y35	Z35	X36	Y36	Z36	X37	Y37	Z37	X38	Y38	Z38	X39	Y39	Z39	X40	Y40	Z40	X41	Y41	Z41	X42	Y42	Z42	X43	Y43	Z43	X44	Y44	Z44	X45	Y45	Z45	X46	Y46	Z46	X47	Y47	Z47	X48	Y48	Z48	X49	Y49	Z49	X50	Y50	Z50	X51	Y51	Z51	X52	Y52	Z52	X53	Y53	Z53	

197	1.96	-1314.355224609375	1057.968505859375	-111.3079071044922	-1301.848388671875	1062.29541015625	-230.6259460449219	-1309.211669921875	1134.572387695312	-189.1337127685547	-1070.506591796875	1319.65576171875	-169.5540771484375	-1323.733276367188	1262.8125	-184.5059661865234	-1259.129150390625	1524.154663085938	-184.9562072753906	-1095.670166015625	1437.021728515625	-171.5396423339844	-1342.173461914062	1386.637451171875	-117.1804809570312	-1270.66748046875	1485.596923828125	-297.1501159667969	-1176.821899414062	1485.979370117188	-346.4398803710938	-1197.693481445312	1366.913452148438	-424.6881713867188	-1175.264282226562	1157.693359375	-453.3607177734375	-1253.119750976562	1139.914916992188	-416.3484191894531	-1087.641845703125	925.9073486328125	-386.911865234375	-1102.796264648438	908.9638671875	-468.13818359375	-1148.5234375	1051.015258789062	-464.4529724121094	-1065.72314453125	728.0195922851562	-401.1689453125	-1082.043701171875	821.1814575195312	-462.4742431640625	-1046.880981445312	826.8911743164062	-403.8162841796875	-1213.250732421875	1481.206298828125	-10.99910259246826	-1236.1005859375	1416.171264648438	54.56401824951172	-1245.96875	1133.35498046875	93.84512329101562	-1282.37353515625	1128.27392578125	6.022950649261475	-1110.757446289062	918.6739501953125	35.75201416015625	-1157.307250976562	903.5409545898438	105.7770767211914	-1216.758911132812	1064.387084960938	103.2648010253906	-1092.623046875	722.4420166015625	31.84625625610352	-1070.666748046875	796.63427734375	44.96734237670898	-1116.603515625	796.6338500976562	101.4867172241211	-1238.642578125	1675.139404296875	-144.5477905273438	-1022.828552246094	1732.122924804688	-193.1499481201172	-1045.979614257812	1729.846923828125	-95.49844360351562	-1165.740600585938	1686.264770507812	-263.575439453125	-1190.654296875	996.3929443359375	-361.7239990234375	-1226.702270507812	1015.159057617188	4.117019653320312	-1127.377197265625	1055.838989257812	-24.23640632629395	-1092.773193359375	1036.489990234375	-304.4364624023438	-1173.599487304688	509.1122131347656	-314.5718383789062	-1167.648681640625	653.7713623046875	-346.5643920898438	-1256.579833984375	40.92341613769531	-302.874267578125	-1225.044555664062	288.077880859375	-321.2630310058594	-1043.032592773438	45.34285736083984	-245.13037109375	-1111.042236328125	39.83195495605469	-202.6679840087891	-1129.025024414062	40.26554107666016	-318.9001159667969	-1318.853515625	48.9927864074707	-251.7009887695312	-1207.475341796875	519.921630859375	-30.37677764892578	-1176.34716796875	789.1653442382812	17.4724006652832	-1295.08154296875	41.10205459594727	-59.93816757202148	-1206.264892578125	405.0995178222656	-48.80708312988281	-1079.275024414062	46.90699005126953	-75.24140167236328	-1131.569213867188	44.94789505004883	-125.44970703125	-1190.908447265625	41.09111022949219	-18.6323070526123	-1349.48828125	39.363037109375	-125.0734939575195	
198	1.97	-1314.26708984375	1057.962646484375	-110.81103515625	-1301.7724609375	1062.306518554688	-230.1254730224609	-1309.101440429688	1134.649169921875	-188.6121520996094	-1070.341796875	1319.59716796875	-169.1171112060547	-1323.587768554688	1262.867553710938	-183.9725646972656	-1258.865966796875	1524.177368164062	-184.3994750976562	-1095.396362304688	1437.009643554688	-171.0760345458984	-1341.9755859375	1386.707763671875	-116.6011276245117	-1270.486328125	1485.669067382812	-296.5914611816406	-1176.622924804688	1486.025268554688	-345.9055480957031	-1197.588745117188	1367.0029296875	-424.1987609863281	-1175.285522460938	1157.779663085938	-452.9439086914062	-1253.091064453125	1140.045166015625	-415.9071960449219	-1087.617309570312	925.9911499023438	-386.5251770019531	-1102.802978515625	909.0090942382812	-467.7525329589844	-1148.51171875	1051.088012695312	-464.04443359375	-1065.724853515625	728.0554809570312	-400.8014526367188	-1082.18701171875	821.2371826171875	-462.1427917480469	-1047.01220703125	826.9519653320312	-403.4953918457031	-1212.857055664062	1481.171997070312	-10.50647926330566	-1235.732421875	1416.153442382812	55.11656188964844	-1245.724853515625	1133.361206054688	94.33663177490234	-1282.167358398438	1128.305908203125	6.573663234710693	-1110.713134765625	918.5665893554688	36.12494277954102	-1157.168090820312	903.4818115234375	106.2140960693359	-1216.525756835938	1064.40380859375	103.7701187133789	-1092.799194335938	722.3584594726562	32.19638061523438	-1070.676391601562	796.4508056640625	45.32285308837891	-1116.474243164062	796.5739135742188	101.8606338500977	-1238.185791015625	1675.202392578125	-143.9551391601562	-1022.317260742188	1731.97119140625	-192.7103424072266	-1045.424438476562	1729.688232421875	-95.02925872802734	-1165.3359375	1686.273803710938	-263.0127868652344	-1190.588134765625	996.416748046875	-361.2704772949219	-1226.566040039062	1015.109924316406	4.587411880493164	-1127.26171875	1055.805541992188	-23.77563095092773	-1092.656616210938	1036.533203125	-304.0172424316406	-1173.48486328125	509.1433410644531	-314.3125915527344	-1167.564086914062	653.8173217773438	-346.2400512695312	-1256.582397460938	40.93558502197266	-302.8713073730469	-1225.0556640625	288.1262512207031	-321.1520385742188	-1043.027221679688	45.34025573730469	-245.1260986328125	-1111.041381835938	39.83282470703125	-202.6672210693359	-1129.011962890625	40.26399612426758	-318.8829956054688	-1318.861328125	48.99683380126953	-251.6902923583984	-1207.384399414062	519.8636474609375	-30.14431381225586	-1176.280395507812	789.0653076171875	17.84557723999023	-1295.098999023438	41.08518981933594	-59.9245491027832	-1206.122802734375	405.0735778808594	-48.62585067749023	-1079.30322265625	46.92238998413086	-75.24864196777344	-1131.575561523438	44.95066070556641	-125.4495315551758	-1190.920532226562	41.08071517944336	-18.61717414855957	-1349.498657226562	39.35395431518555	-125.076904296875	
199	1.98	-1314.181640625	1057.952514648438	-110.3044967651367	-1301.707763671875	1062.316528320312	-229.6193389892578	-1308.995361328125	1134.725219726562	-188.0751647949219	-1070.144897460938	1319.543823242188	-168.6494598388672	-1323.434692382812	1262.922607421875	-183.4115142822266	-1258.57958984375	1524.204711914062	-183.8108215332031	-1095.111328125	1436.99755859375	-170.5919799804688	-1341.775268554688	1386.775390625	-115.9954681396484	-1270.288330078125	1485.743408203125	-296.0097045898438	-1176.423583984375	1486.0654296875	-345.3544921875	-1197.480346679688	1367.091796875	-423.6825866699219	-1175.339599609375	1157.8662109375	-452.5160827636719	-1253.060302734375	1140.176025390625	-415.4378967285156	-1087.62158203125	926.0624389648438	-386.1364440917969	-1102.81982421875	909.050537109375	-467.34521484375	-1148.557373046875	1051.160888671875	-463.6317443847656	-1065.756469726562	728.0783081054688	-400.4246215820312	-1082.383422851562	821.2972412109375	-461.8087768554688	-1047.203125	826.984375	-403.1897583007812	-1212.440063476562	1481.1357421875	-9.992369651794434	-1235.339477539062	1416.134033203125	55.69345474243164	-1245.475952148438	1133.365234375	94.85698699951172	-1281.939208984375	1128.3369140625	7.15157413482666	-1110.696533203125	918.4569702148438	36.4959716796875	-1157.003295898438	903.4200439453125	106.6693572998047	-1216.306640625	1064.418823242188	104.3009567260742	-1092.99755859375	722.2456665039062	32.55302429199219	-1070.631225585938	796.2809448242188	45.71516036987305	-1116.323852539062	796.5162963867188	102.265625	-1237.703979492188	1675.2724609375	-143.3397979736328	-1021.7998046875	1731.802856445312	-192.2509765625	-1044.852416992188	1729.527221679688	-94.54872894287109	-1164.915161132812	1686.268188476562	-262.4395446777344	-1190.505493164062	996.4422607421875	-360.7893371582031	-1226.449584960938	1015.060302734375	5.055350780487061	-1127.148315429688	1055.7626953125	-23.28305244445801	-1092.547607421875	1036.577514648438	-303.6162414550781	-1173.375	509.1773071289062	-314.05029296875	-1167.486572265625	653.8626708984375	-345.9039001464844	-1256.584350585938	40.94821166992188	-302.8669738769531	-1225.068359375	288.177734375	-321.0384521484375	-1043.023681640625	45.33869934082031	-245.1211547851562	-1111.040893554688	39.83266067504883	-202.6649627685547	-1128.998779296875	40.26333999633789	-318.8639526367188	-1318.872436523438	49.00145721435547	-251.6781311035156	-1207.28564453125	519.80224609375	-29.90196228027344	-1176.231323242188	788.9652099609375	18.24294853210449	-1295.11865234375	41.06938171386719	-59.91342544555664	-1205.980102539062	405.0524291992188	-48.43011093139648	-1079.332885742188	46.9384651184082	-75.25551605224609	-1131.582153320312	44.95392990112305	-125.4495086669922	-1190.93408203125	41.07018661499023	-18.60234260559082	-1349.5126953125	39.34637069702148	-125.0812835693359	
200	1.99	-1314.091674804688	1057.93701171875	-109.7842407226562	-1301.651733398438	1062.325439453125	-229.1053619384766	-1308.884765625	1134.800415039062	-187.5199890136719	-1069.91748046875	1319.494506835938	-168.1536712646484	-1323.27001953125	1262.980224609375	-182.8232879638672	-1258.268310546875	1524.236206054688	-183.1909637451172	-1094.813598632812	1436.984130859375	-170.0849151611328	-1341.563842773438	1386.842041015625	-115.3600616455078	-1270.067260742188	1485.820190429688	-295.4031677246094	-1176.217407226562	1486.101806640625	-344.7858276367188	-1197.365600585938	1367.179321289062	-423.141845703125	-1175.417846679688	1157.95361328125	-452.0752258300781	-1253.037231445312	1140.304931640625	-414.9461975097656	-1087.662109375	926.1141967773438	-385.7539978027344	-1102.85693359375	909.0895385742188	-466.9209594726562	-1148.660278320312	1051.233642578125	-463.2163696289062	-1065.82470703125	728.0886840820312	-400.04248046875	-1082.624389648438	821.3580932617188	-461.471435546875	-1047.434692382812	826.9885864257812	-402.8975830078125	-1211.990844726562	1481.100219726562	-9.454929351806641	-1234.923095703125	1416.114990234375	56.29378509521484	-1245.216186523438	1133.36865234375	95.40665435791016	-1281.6953125	1128.367797851562	7.75253438949585	-1110.693603515625	918.3518676757812	36.87515258789062	-1156.818115234375	903.356201171875	107.1400527954102	-1216.098266601562	1064.424682617188	104.8578491210938	-1093.19580078125	722.1034545898438	32.92223739624023	-1070.54345703125	796.1293334960938	46.13861083984375	-1116.162963867188	796.4583129882812	102.6900863647461	-1237.201049804688	1675.344604492188	-142.6995391845703	-1021.277160644531	1731.6201171875	-191.7706756591797	-1044.260986328125	1729.36572265625	-94.05681610107422	-1164.486450195312	1686.243286132812	-261.854248046875	-1190.4189453125	996.4708251953125	-360.2839660644531	-1226.335205078125	1015.008422851562	5.531470775604248	-1127.034423828125	1055.7119140625	-22.76899147033691	-1092.444946289062	1036.622802734375	-303.2296142578125	-1173.271240234375	509.2144775390625	-313.7869262695312	-1167.425903320312	653.908203125	-345.5619201660156	-1256.585205078125	40.961181640625	-302.8606262207031	-1225.08056640625	288.2319946289062	-320.9230041503906	-1043.022827148438	45.33890151977539	-245.1162414550781	-1111.040405273438	39.83067321777344	-202.6607513427734	-1128.987548828125	40.26460266113281	-318.8455505371094	-1318.885620117188	49.00728988647461	-251.6650695800781	-1207.175903320312	519.740478515625	-29.64977073669434	-1176.187622070312	788.8636474609375	18.66390800476074	-1295.139526367188	41.05487442016602	-59.90475463867188	-1205.841064453125	405.0351867675781	-48.21976852416992	-1079.360961914062	46.95318984985352	-75.26118469238281	-1131.589111328125	44.95786285400391	-125.4491882324219	-1190.949584960938	41.0597038269043	-18.58770561218262	-1349.52783203125	39.33920669555664	-125.0833053588867	
